<svg id="svg2" xmlns="http://www.w3.org/2000/svg" viewBox="0 0 998.81 819.25"><defs><style>.cls-1{fill:#fff;}</style></defs><title>amex2</title><polygon class="cls-1" points="777.18 561.02 711.22 561.02 711.22 540.21 775.33 540.21 775.33 515.56 711.22 515.56 711.22 495.52 777.18 495.52 777.18 469.32 681.63 469.32 681.63 586.45 777.18 586.45 777.18 561.02"/><path class="cls-1" d="M96.32,358.05l9.25,23.45h33.52L88.76,264.37H50.57L.19,381.5H33l9.29-23.45ZM69.21,291.63l16.47,41h-33Z"/><polygon class="cls-1" points="213.44 586.45 308.99 586.45 308.99 561.02 243.03 561.02 243.03 540.21 307.45 540.21 307.45 515.56 243.03 515.56 243.03 495.52 308.99 495.52 308.99 469.32 213.44 469.32 213.44 586.45"/><polygon class="cls-1" points="288.96 381.48 288.96 264.36 242.72 264.36 216.27 340.04 189.16 264.53 142.55 264.36 142.55 381.48 171.83 381.48 171.83 295.18 202.96 381.48 228.64 381.48 259.68 295.18 259.68 381.48 288.96 381.48"/><path class="cls-1" d="M563.28,586.45h29.28V544.84h12.33L640,586.45h35.79L637.25,543.3a35.68,35.68,0,0,0,32.12-36c0-24.65-19.34-38-40.93-38H563.28Zm29.28-90.93H626c8,0,13.87,6.28,13.87,12.33,0,7.78-7.57,12.33-13.44,12.33h-33.9Z"/><path class="cls-1" d="M822.86,541.29h26.48c8.69,0,12.43,5,12.43,9.9,0,5.14-3.75,9.83-12.43,9.83h-58.6v25.43h62.41c25.78,0,38.19-16.79,38.19-37.28,0-19.06-11.13-33.61-36.79-33.61H826.81c-7.21,0-10.79-5.36-10.79-10.21s2.9-9.67,12.33-9.67h49.31L890,469.32H833c-34.2,0-45.94,18.11-45.94,36.89C787,527.27,799.85,541.29,822.86,541.29Z"/><path class="cls-1" d="M473.89,549.48h30.82c26.08,0,45.85-13.84,45.85-40.74,0-22.29-15.5-39.4-42-39.4H443.84V586.47h30.05Zm0-53.65h32.46c8.43,0,14.45,5.16,14.45,13.48,0,7.82-6,13.49-14.55,13.49H473.89Z"/><polygon class="cls-1" points="348.48 469.32 311.59 469.32 359.22 528.61 312.7 586.45 349.06 586.45 375.94 550.38 403.48 586.45 440.36 586.45 393.75 527.88 440.76 469.32 405.31 469.32 376.85 505.97 348.48 469.32"/><path class="cls-1" d="M0-87.79v420l37.35-87.07h64.59l21.19,48.78V245.09h80.3L216,280.34l12.24-35.25H588.7v17.72s18.95-17.72,50.09-17.72l117,.41,20.83,48.14V245.09h67.19l18.49,27.65V245.09h67.81V401.51H862.25l-17.72-27.74v27.74H745.81l-9.93-24.65H709.34l-9.77,24.65H632.63c-26.8,0-43.93-17.36-43.93-17.36v17.36H487.76l-20-24.65v24.65H92.37l-9.92-24.65H56l-9.85,24.65H0v507H998.81V-87.79ZM996.33,535c-4.55-11.65-15.54-19.44-34.32-19.44H934.27c-7.2,0-10.78-5.36-10.78-10.21s2.9-9.67,12.33-9.67h49.31l11.2-23.94Zm0-65.68H940.44c-34.21,0-46,18.11-46,36.89,0,21.06,12.82,35.08,35.84,35.08h26.48c8.69,0,12.43,5,12.43,9.9,0,5.14-3.76,9.83-12.43,9.83h-58.6v25.43h62.41c19.16,0,30.92-9.27,35.71-22.44v31.68s-15.72,10.64-33.91,10.79H629.54l-20-24.66v24.66H543.86V564.39s-9,5.88-28.36,5.88H493.16v36.21H393.75L376,582.82l-18,23.66H193.41V450.06H359l17.77,23.16,18.36-23.16H996.33Z"/><path class="cls-1" d="M686.47,381.5l9.29-23.45h54l9.25,23.45h33.51L742.24,264.37H704.05L653.67,381.5Zm36.21-89.87,16.48,41h-33Z"/><path class="cls-1" d="M583.7,323.4c0,33.48,18.95,58.08,50.18,58.08h6.45l12.33-25.58H645c-18.64,0-31.59-9.53-31.59-32.21,0-19.1,11.32-31.6,27.33-31.6h33.55V264.35H641.87C602.44,264.35,583.7,289.09,583.7,323.4Z"/><polygon class="cls-1" points="874 381.48 910.03 381.48 910.03 264.36 880.75 264.36 880.75 337.94 833.21 264.36 795.98 264.36 795.98 381.48 825.26 381.48 825.26 305.96 874 381.48"/><path class="cls-1" d="M527.59,302.37c0-24.64-19.35-38-40.94-38H421.49V381.5h29.29V339.89H463.1l35.11,41.61H534l-38.53-43.15A35.68,35.68,0,0,0,527.59,302.37Zm-42.91,12.86h-33.9V290.57h33.47c8,0,13.87,6.28,13.87,12.33C498.12,310.68,490.55,315.23,484.68,315.23Z"/><rect class="cls-1" x="539.54" y="264.35" width="29.9" height="117.12"/><polygon class="cls-1" points="404.54 290.55 404.54 264.36 308.99 264.36 308.99 381.48 404.54 381.48 404.54 356.05 338.58 356.05 338.58 335.25 403 335.25 403 310.59 338.58 310.59 338.58 290.55 404.54 290.55"/></svg>