<?xml version="1.0" encoding="utf-8"?>
<!-- Generator: Adobe Illustrator 24.0.0, SVG Export Plug-In . SVG Version: 6.00 Build 0)  -->
<svg version="1.1" id="Layer_1" xmlns="http://www.w3.org/2000/svg" xmlns:xlink="http://www.w3.org/1999/xlink" x="0px" y="0px"
	 viewBox="0 0 226.4 185.7" style="enable-background:new 0 0 226.4 185.7;" xml:space="preserve">
<style type="text/css">
	.st0{fill:#FFFFFF;}
</style>
<title>visa</title>
<g id="Layer_2_1_">
	<g id="Visa_Logo">
		<path class="st0" d="M85.9,57.6l-29.6,70.7H37L22.4,71.9c-0.9-3.5-1.6-4.7-4.3-6.2c-4.4-2.4-11.7-4.6-18-6l0.4-2.1h31.1
			c4.2,0,7.7,3.1,8.4,7.2l7.7,40.9l19.1-48.1H85.9z M161.7,105.2c0.1-18.7-25.8-19.7-25.6-28c0.1-2.5,2.5-5.2,7.8-5.9
			c6.2-0.6,12.4,0.5,18,3.1l3.2-15c-5.5-2.1-11.3-3.1-17.1-3.1c-18,0-30.8,9.6-30.9,23.4c-0.1,10.2,9.1,15.9,16,19.3
			c7.1,3.5,9.5,5.7,9.4,8.8c0,4.7-5.7,6.8-11,6.9c-9.2,0.1-14.5-2.5-18.8-4.5l-3.3,15.5c4.3,2,12.2,3.7,20.3,3.8
			C149.1,129.4,161.7,119.9,161.7,105.2 M209.5,128.3h16.9l-14.8-70.7H196c-3.4,0-6.5,2-7.8,5.2l-27.4,65.5H180l3.8-10.6h23.5
			L209.5,128.3z M189.1,103.2l9.6-26.6l5.5,26.6H189.1z M112.2,57.6L97,128.3H78.7l15.1-70.7H112.2z"/>
	</g>
</g>
</svg>
