<?xml version="1.0" encoding="utf-8"?>
<!-- Generator: Adobe Illustrator 24.0.0, SVG Export Plug-In . SVG Version: 6.00 Build 0)  -->
<svg version="1.1"
	 id="svg2" xmlns:cc="http://creativecommons.org/ns#" xmlns:dc="http://purl.org/dc/elements/1.1/" xmlns:rdf="http://www.w3.org/1999/02/22-rdf-syntax-ns#" xmlns:svg="http://www.w3.org/2000/svg"
	 xmlns="http://www.w3.org/2000/svg" xmlns:xlink="http://www.w3.org/1999/xlink" x="0px" y="0px" viewBox="0 0 524 429.8"
	 style="enable-background:new 0 0 524 429.8;" xml:space="preserve">
<style type="text/css">
	.st0{fill:#FFFFFF;}
</style>
<g>
	<g id="g14" transform="translate(388.9951,148.1997)">
		<path id="path16" class="st0" d="M105.4,12.7l29.6,54l-62.2,54L105.4,12.7z"/>
	</g>
	<g id="g18" transform="translate(373.7598,148.1997)">
		<path id="path20" class="st0" d="M100.2,12.7l29.5,54l-62.1,54L100.2,12.7z"/>
	</g>
	<g id="g24">
		<g id="g30" transform="translate(21,82.4365)">
			<path id="path32" class="st0" d="M-21,166.8L8.5,69.1h47.1c14.7,0,24.6,2.1,29.6,6.6c5,4.4,5.9,11.5,2.9,21.6
				c-1.8,5.9-4.6,10.9-8.3,14.8c-3.8,3.9-8.7,7-14.8,9.3c5.2,1.1,8.5,3.4,9.9,6.8c1.5,3.4,1.3,8.4-0.5,14.9l-3.6,13.6l0,0.4
				c-1,3.8-0.7,5.9,1,6l-1.1,3.6H38.8c0.1-2.3,0.3-4.4,0.5-6.1c0.2-1.8,0.5-3.1,0.8-4.1l3-9.8c1.5-5.1,1.6-8.6,0.2-10.6
				c-1.4-2.1-4.5-3.1-9.5-3.1H20.4l-10.2,33.7H-21z M27,111.1h14.3c5,0,8.7-0.7,11-2c2.3-1.4,4-3.7,5-7.1c1-3.4,0.8-5.8-0.7-7.2
				c-1.5-1.4-5-2-10.6-2H32.6L27,111.1z"/>
		</g>
		<g id="g34" transform="translate(167.3169,136.0762)">
			<path id="path36" class="st0" d="M29.3,41.1L7.5,113.2h-26.4l3.2-10.6c-4.7,4.2-9.4,7.4-14.2,9.4c-4.8,2.1-9.8,3.1-15.1,3.1
				c-4.4,0-8.1-0.7-11.1-2.2c-3.1-1.4-5.3-3.6-6.9-6.5c-1.4-2.5-1.9-5.7-1.7-9.4c0.2-3.7,1.7-9.9,4.3-18.6l11.3-37.4h28.9
				l-11.2,37.2c-1.6,5.4-2,9.3-1.2,11.4c0.8,2.1,3.1,3.2,6.7,3.2c3.6,0,6.7-1.2,9.2-3.7c2.6-2.5,4.5-6.1,6-11L0.4,41.1H29.3z"/>
		</g>
		<g id="g38" transform="translate(159.5171,82.4365)">
			<path id="path40" class="st0" d="M26.6,166.8L56,69.1h40.5c8.9,0,15.9,0.5,20.8,1.6c4.9,1,8.8,2.7,11.6,5
				c3.6,3.1,5.8,6.8,6.7,11.4c0.9,4.5,0.3,9.8-1.5,16c-3.3,10.9-9.1,19.3-17.3,25.1c-8.3,5.8-18.5,8.7-30.7,8.7h-19l-9,29.9H26.6z
				 M74.4,113.1h10.2c6.6,0,11.2-0.7,13.9-2.2c2.6-1.5,4.5-4.1,5.6-7.8c1.1-3.7,0.8-6.4-0.9-7.8c-1.7-1.5-5.9-2.2-12.7-2.2H80.4
				L74.4,113.1z"/>
		</g>
		<g id="g42" transform="translate(264.8691,82.4365)">
			<path id="path44" class="st0" d="M62.8,166.8l0.3-6.8c-4.7,3.2-9.4,5.6-14.1,7.1c-4.7,1.5-9.8,2.3-15.1,2.3c-8.2,0-13.9-2-17.2-6
				c-3.3-4-3.8-9.7-1.6-16.9c2.1-7.2,5.9-12.4,11.4-15.8c5.4-3.4,14.5-5.9,27.2-7.4c1.6-0.2,3.8-0.4,6.5-0.7
				c9.4-1,14.7-3.3,15.8-7.1c0.6-2.1,0.2-3.6-1.2-4.5c-1.3-1-3.9-1.4-7.5-1.4c-3,0-5.4,0.6-7.4,1.8c-2,1.2-3.5,3-4.5,5.4H27.3
				c2.5-8.1,7.7-14.2,15.5-18.3c7.8-4.2,18-6.2,30.7-6.2c6,0,11.3,0.5,16,1.6c4.7,1.1,8.2,2.6,10.4,4.4c2.8,2.3,4.4,4.9,4.9,7.8
				c0.5,2.9-0.1,7-1.7,12.5l-12.1,40.2c-0.4,1.3-0.5,2.5-0.3,3.6c0.3,1,0.7,1.9,1.6,2.5l-0.7,2H62.8z M69.8,134.6
				c-3.1,1.1-7.1,2.2-12,3.4c-7.8,1.9-12.2,4.5-13.1,7.7c-0.7,2-0.4,3.6,0.7,4.8c1.1,1.1,2.9,1.7,5.5,1.7c4.8,0,8.6-1.1,11.5-3.3
				c2.9-2.2,5-5.7,6.5-10.6c0.3-1,0.5-1.8,0.6-2.3L69.8,134.6z"/>
		</g>
		<g id="g46" transform="translate(286.6201,61.2998)">
			<path id="path48" class="st0" d="M70.3,216.3l6.4-21.3h8.3c2.8,0,4.9-0.5,6.5-1.4c1.6-0.9,2.6-2.6,3.2-4.7c0.3-1,0.5-1.9,0.6-3.1
				c0.1-1.2,0.1-2.5,0-3.9l-4.4-66h29.2l-0.5,43.7l25.5-43.7h27.2l-45.1,71.7c-5.1,8-8.8,13.5-11.2,16.5c-2.3,3-4.5,5.3-6.7,6.8
				c-2.8,2.2-5.9,3.7-9.2,4.6c-3.4,0.9-8.5,1.4-15.4,1.4c-2,0-4.3,0-6.7-0.2C75.5,216.7,72.9,216.5,70.3,216.3"/>
		</g>
	</g>
</g>
</svg>
